PathFileType	4	(X/Y/Z)	s05c0401.trc
DataRate	CameraRate	NumFrames	NumMarkers	Units	OrigDataRate	OrigDataStartFrame	OrigNumFrames
200	200	6	50	mm	200	250	2000
Frame#	Time	racr			lacr			c7			jug			rlel			rdr			llel			ldr			s2			lic			ric			lasi			rasi			rpsi			lpsi			rgt			lgt			rth1			rth2			rth3			rth4			rlfc			rmfc			rsh1			rsh2			rsh3			rsh4			rlmal			rmmal			rcal			rtoe			rmt5			lth1			lth2			lth4			lth3			llfc			lmfc			lsh1			lsh2			lsh3			lsh4			llmal			lmmal			lcal			ltoe			lmt5			SBIKE			LBIKE			RBIKE			
		X1	Y1	Z1	X2	Y2	Z2	X3	Y3	Z3	X4	Y4	Z4	X5	Y5	Z5	X6	Y6	Z6	X7	Y7	Z7	X8	Y8	Z8	X9	Y9	Z9	X10	Y10	Z10	X11	Y11	Z11	X12	Y12	Z12	X13	Y13	Z13	X14	Y14	Z14	X15	Y15	Z15	X16	Y16	Z16	X17	Y17	Z17	X18	Y18	Z18	X19	Y19	Z19	X20	Y20	Z20	X21	Y21	Z21	X22	Y22	Z22	X23	Y23	Z23	X24	Y24	Z24	X25	Y25	Z25	X26	Y26	Z26	X27	Y27	Z27	X28	Y28	Z28	X29	Y29	Z29	X30	Y30	Z30	X31	Y31	Z31	X32	Y32	Z32	X33	Y33	Z33	X34	Y34	Z34	X35	Y35	Z35	X36	Y36	Z36	X37	Y37	Z37	X38	Y38	Z38	X39	Y39	Z39	X40	Y40	Z40	X41	Y41	Z41	X42	Y42	Z42	X43	Y43	Z43	X44	Y44	Z44	X45	Y45	Z45	X46	Y46	Z46	X47	Y47	Z47	X48	Y48	Z48	X49	Y49	Z49	X50	Y50	Z50	
250	1.2500	399.801213	1405.582073	-147.329148	401.995447	1421.597838	-441.863761	376.172294	1491.409622	-298.616719	371.841176	1332.610266	-296.804644	499.806925	1162.471416	-51.721196	685.799783	969.923527	-72.604561	480.328444	1159.252892	-535.550292	681.138057	968.862458	-509.893181	-110.850263	1153.696921	-275.449486	34.386309	1174.371084	-419.927722	37.587960	1193.174460	-140.585614	86.474550	1123.707431	-389.808997	79.888286	1132.599835	-167.073559	-82.541736	1202.552982	-237.915989	-81.091901	1204.102932	-325.541891	4.371259	1062.857255	-105.039956	-29.768254	1064.430183	-444.873631	104.487415	1008.165826	-91.868840	192.826080	994.824582	-90.846863	260.538991	939.060082	-93.701474	206.965684	1027.593462	-102.917118	398.602179	863.935471	-122.292248	385.403634	857.897382	-231.995895	334.401735	771.547390	-99.266022	325.671682	683.405661	-108.615483	277.732409	612.733027	-112.257995	355.202755	675.591435	-132.393602	238.915510	483.908965	-122.330824	251.584297	506.923035	-202.925630	165.966643	454.256788	-167.522335	458.702107	418.755659	-160.087776	356.641664	399.914362	-95.095093	53.800841	950.364021	-465.520789	125.169748	902.067464	-467.424223	153.336084	923.219579	-453.511077	162.019584	819.017743	-467.660473	237.298661	687.874400	-442.294288	226.918653	678.804336	-332.253315	139.938578	603.513000	-461.608189	101.796639	525.643892	-448.720291	27.580012	476.875748	-444.416620	127.114234	507.294408	-426.198117	-46.938144	377.153419	-433.357255	-14.895671	391.417281	-356.521141	-118.093152	359.210610	-388.345449	151.029867	242.698424	-402.839733	39.021451	254.100330	-462.782110	-220.943010	912.180601	-275.208388	-53.479685	78.941402	-475.240198	-53.530320	79.157324	-77.435140	
251	1.2550	399.893019	1405.600199	-147.344154	402.046414	1421.560756	-441.792085	376.244222	1491.369057	-298.570166	371.935959	1332.516846	-296.767901	499.836617	1162.484816	-51.584600	685.808129	969.899187	-72.727512	480.298589	1159.181791	-535.584599	681.109109	968.840487	-509.823589	-110.833933	1153.706317	-275.429888	34.471756	1174.374858	-419.908770	37.586285	1193.181833	-140.541979	86.507964	1123.696948	-389.758191	79.880013	1132.614508	-167.031928	-82.519452	1202.568289	-237.902160	-81.052177	1204.122362	-325.550167	4.388169	1062.864619	-105.026801	-29.731828	1064.452189	-444.870910	104.521497	1008.223674	-91.864984	192.856262	994.878460	-90.863017	260.571583	939.127549	-93.749196	206.987750	1027.661836	-102.945720	398.664227	864.100247	-122.323561	385.426551	857.945485	-232.020076	334.435019	771.653153	-99.301615	325.737966	683.456540	-108.622382	277.795029	612.789936	-112.270898	355.247955	675.628997	-132.426278	238.982006	483.952053	-122.338471	251.664230	506.972914	-202.922057	166.015091	454.330682	-167.501624	458.733222	418.710768	-160.077817	356.677729	399.917355	-95.089887	53.843356	950.386603	-465.530810	125.180689	902.075920	-467.426541	153.349212	923.219178	-453.543675	162.005553	818.999125	-467.665658	237.290476	687.867051	-442.311243	226.925675	678.787331	-332.271233	139.917748	603.506665	-461.626998	101.776548	525.629090	-448.742736	27.573512	476.874856	-444.432072	127.101875	507.302996	-426.224339	-46.966696	377.143201	-433.346885	-14.921154	391.408350	-356.522726	-118.108596	359.204428	-388.346851	151.026856	242.717420	-402.837279	39.015252	254.101487	-462.797197	-220.929521	912.173385	-275.194570	-53.469422	78.942095	-475.222350	-53.510008	79.121952	-77.458231	
252	1.2600	399.972501	1405.618131	-147.325296	402.092713	1421.525187	-441.736387	376.326754	1491.342331	-298.559630	371.985832	1332.433618	-296.736265	499.847645	1162.493414	-51.441412	685.774062	969.871699	-72.873159	480.289721	1159.172979	-535.576551	681.087053	968.825822	-509.745592	-110.811628	1153.730128	-275.439226	34.502450	1174.338913	-419.853839	37.584201	1193.191750	-140.539615	86.557555	1123.691537	-389.711817	79.886971	1132.620416	-166.988295	-82.507484	1202.587000	-237.889468	-81.031213	1204.125385	-325.483027	4.380438	1062.900238	-104.989156	-29.703357	1064.476252	-444.859714	104.539105	1008.281338	-91.851258	192.875659	994.936832	-90.876124	260.615415	939.169472	-93.784606	207.023822	1027.705269	-102.987305	398.706302	864.155341	-122.384731	385.444604	857.989778	-232.081121	334.480906	771.682130	-99.327568	325.764747	683.487248	-108.661494	277.847275	612.862571	-112.270711	355.303407	675.679444	-132.453428	239.013205	484.023927	-122.328165	251.715440	507.001388	-202.921984	166.042399	454.403513	-167.510266	458.753537	418.674919	-160.072153	356.704369	399.916214	-95.103245	53.837283	950.406556	-465.531203	125.190550	902.058780	-467.430596	153.372339	923.224714	-453.555095	161.992622	819.024452	-467.705536	237.286112	687.840433	-442.341473	226.923980	678.795708	-332.299782	139.902674	603.499132	-461.639075	101.773192	525.633632	-448.770378	27.551405	476.882450	-444.439883	127.087462	507.287548	-426.239752	-46.961627	377.132261	-433.348077	-14.921103	391.408352	-356.522574	-118.112038	359.188590	-388.351804	151.027015	242.715344	-402.852245	39.016349	254.105743	-462.796082	-220.933161	912.180543	-275.208136	-53.474021	78.935200	-475.223451	-53.502975	79.132145	-77.455184	
253	1.2650	400.050957	1405.641201	-147.345273	402.131102	1421.499827	-441.694203	376.397068	1491.328606	-298.554035	372.075321	1332.391035	-296.695000	499.841371	1162.489454	-51.316800	685.722970	969.815521	-73.023989	480.310758	1159.160440	-535.543991	681.084082	968.813212	-509.738659	-110.800356	1153.730951	-275.431871	34.558807	1174.333156	-419.815753	37.590985	1193.221309	-140.498429	86.598551	1123.661562	-389.638005	79.899406	1132.640561	-166.938389	-82.488180	1202.599407	-237.883111	-81.000613	1204.138335	-325.551596	4.398942	1062.926185	-104.993571	-29.679579	1064.483567	-444.840643	104.600127	1008.346748	-91.842901	192.928272	995.017542	-90.918964	260.687406	939.261328	-93.809560	207.071621	1027.773718	-103.029604	398.732876	864.234296	-122.431393	385.467680	858.020690	-232.088731	334.528460	771.720764	-99.367381	325.807599	683.542289	-108.697206	277.874791	612.884890	-112.292099	355.332172	675.731237	-132.475304	239.082598	484.075969	-122.344752	251.798555	507.016335	-202.825797	166.117585	454.403221	-167.920786	458.780541	418.644840	-160.073646	356.733207	399.922716	-95.100670	53.860676	950.407798	-465.519620	125.192131	902.076848	-467.435462	153.387909	923.235155	-453.569622	162.011332	819.017392	-467.698911	237.282483	687.869285	-442.362815	226.939910	678.779030	-332.320852	139.890513	603.505099	-461.655133	101.760429	525.641433	-448.791148	27.553611	476.870897	-444.441314	127.080146	507.293458	-426.255423	-46.968864	377.144269	-433.349325	-14.899219	391.417109	-356.530131	-118.110350	359.178173	-388.352688	151.033503	242.718765	-402.838381	39.008020	254.101454	-462.789994	-220.929750	912.179115	-275.190271	-53.478823	78.953326	-475.221070	-53.508954	79.112484	-77.464471	
254	1.2700	400.135456	1405.670081	-147.349313	402.183995	1421.499402	-441.659285	376.468689	1491.328547	-298.548879	372.166896	1332.355433	-296.701425	499.838754	1162.496997	-51.249487	685.654919	969.779234	-73.180366	480.348089	1159.199940	-535.478742	681.099116	968.816187	-509.734950	-110.792682	1153.748841	-275.426361	34.628476	1174.332233	-419.801418	37.587944	1193.233569	-140.474332	86.627636	1123.658592	-389.611470	79.908466	1132.650778	-166.881925	-82.476200	1202.612516	-237.879280	-80.979959	1204.145707	-325.508069	4.403411	1062.976106	-104.974170	-29.651882	1064.494265	-444.834364	104.770414	1008.434123	-91.830272	192.983281	995.094124	-90.950136	260.750130	939.317889	-93.840784	207.127363	1027.852862	-103.065844	398.757076	864.282490	-122.472964	385.485076	858.061289	-232.162218	334.569265	771.769102	-99.397266	325.852359	683.563183	-108.730285	277.924856	612.906281	-112.319595	355.372719	675.754135	-132.514258	239.121486	484.121007	-122.357591	251.837036	507.076815	-202.831239	166.153838	454.463322	-167.924804	458.806479	418.618692	-160.088139	356.735941	399.941276	-95.117562	53.884190	950.429029	-465.505477	125.215880	902.107323	-467.448819	153.405408	923.253117	-453.578086	162.013844	819.038516	-467.713297	237.280762	687.870096	-442.366330	226.944335	678.789081	-332.322442	139.909399	603.528942	-461.671757	101.773162	525.649972	-448.776745	27.544977	476.881438	-444.450237	127.094562	507.321373	-426.273529	-46.959727	377.148200	-433.347367	-14.880945	391.425661	-356.546920	-118.100631	359.210824	-388.355369	151.027260	242.706467	-402.847012	39.007036	254.105117	-462.797344	-220.926831	912.184295	-275.190854	-53.469751	78.945462	-475.238319	-53.520687	79.137634	-77.460451	
255	1.2750	400.196650	1405.708612	-147.352832	402.227264	1421.500771	-441.667107	376.538060	1491.323813	-298.566575	372.224045	1332.328650	-296.675735	499.838453	1162.495118	-51.193840	685.573008	969.750434	-73.363180	480.400166	1159.252787	-535.390155	681.112985	968.808642	-509.743024	-110.763631	1153.749418	-275.399319	34.688703	1174.310512	-419.771092	37.597562	1193.257609	-140.465007	86.664002	1123.636975	-389.562787	79.907623	1132.660176	-166.862150	-82.461982	1202.622773	-237.869081	-80.939912	1204.149636	-325.506179	4.428733	1062.993904	-104.966220	-29.632338	1064.508328	-444.822400	104.815768	1008.505820	-91.841789	193.032761	995.174684	-90.990322	260.759913	939.373425	-93.861110	207.171703	1027.897609	-103.109824	398.787513	864.329316	-122.506749	385.493643	858.075231	-232.194897	334.613403	771.808366	-99.435496	325.888128	683.574734	-108.753850	277.981240	612.939897	-112.335606	355.390063	675.797034	-132.559603	239.150515	484.175412	-122.363211	251.820538	507.162185	-202.921982	166.143782	454.600730	-167.511734	458.820424	418.611149	-160.073655	356.742096	399.961016	-95.132877	53.907442	950.452564	-465.512420	125.236600	902.117840	-467.457198	153.422292	923.269960	-453.588263	162.043206	819.056496	-467.730312	237.287780	687.862874	-442.372891	226.965130	678.800326	-332.341087	139.912942	603.541251	-461.678363	101.787270	525.669246	-448.792694	27.570601	476.895690	-444.445241	127.116122	507.318190	-426.269302	-46.930456	377.152949	-433.340834	-14.855558	391.434589	-356.545608	-118.072723	359.212552	-388.343917	151.038105	242.689875	-402.853660	39.018176	254.080036	-462.801970	-220.923491	912.188174	-275.188102	-53.464989	78.947116	-475.217315	-53.507924	79.125716	-77.435120	
